<svg version="1.1" xmlns="http://www.w3.org/2000/svg" xmlns:xlink="http://www.w3.org/1999/xlink" x="0px" y="0px" width="380.8px"
	 height="91.09px" viewBox="0 0 380.8 91.09" style="overflow:visible;enable-background:new 0 0 380.8 91.09;"
	 xml:space="preserve">
<style type="text/css">
	.st0{fill:#5A8D96;}
	.st1{fill:#283351;}
</style>
<defs>
</defs>
<g>
	<path class="st0" d="M75.11,29.58H61.47v-13.6c0-4.25-1.66-8.28-4.64-11.26C53.8,1.69,49.77,0,45.53,0
		c-8.82,0-15.98,7.16-15.98,15.98v13.6h-13.6c-4.25,0-8.28,1.69-11.3,4.68C1.66,37.28,0,41.31,0,45.56
		c0,8.82,7.13,15.98,15.94,15.98h13.6v13.6c0,4.25,1.69,8.28,4.68,11.26c3.02,3.02,7.05,4.68,11.3,4.68
		c8.82,0,15.94-7.13,15.94-15.94v-13.6h13.64c4.25,0,8.28-1.69,11.3-4.68c2.99-3.02,4.64-7.05,4.64-11.3
		C91.05,36.74,83.92,29.58,75.11,29.58z M32.25,15.98c0-7.31,5.97-13.28,13.28-13.28c3.53,0,6.87,1.4,9.36,3.92
		c2.52,2.48,3.89,5.83,3.89,9.36v13.6v1.37c0,0.86-0.07,1.69-0.25,2.52c-0.04,0.32-0.11,0.61-0.22,0.94
		c-0.22,0.9-0.54,1.73-0.97,2.52c-0.18,0.36-0.36,0.72-0.58,1.04c-0.22,0.4-0.5,0.76-0.76,1.12c-0.22,0.25-0.47,0.54-0.68,0.79
		c-0.25,0.29-0.54,0.58-0.86,0.86c-0.29,0.25-0.58,0.5-0.9,0.76c-1.19,0.94-2.59,1.66-4.1,2.12c-0.4,0.14-0.83,0.25-1.26,0.32
		c-0.43,0.11-0.9,0.18-1.37,0.22c-0.04-0.36-0.07-0.76-0.14-1.12c-0.07-0.58-0.22-1.15-0.36-1.73c-0.11-0.43-0.25-0.86-0.43-1.26
		c0.04-0.04,0-0.04,0-0.07c-0.14-0.36-0.29-0.68-0.43-1.04c-0.43-0.94-0.94-1.8-1.51-2.59c-0.25-0.36-0.54-0.72-0.83-1.08
		c-0.29-0.36-0.61-0.68-0.94-1.01c-0.79-0.79-1.66-1.51-2.59-2.09c-0.32-0.25-0.68-0.47-1.08-0.65c-0.4-0.22-0.79-0.43-1.22-0.61
		c-0.14-0.07-0.25-0.11-0.4-0.14c-0.29-0.14-0.54-0.25-0.83-0.32c-0.32-0.11-0.65-0.22-0.97-0.29c-0.47-0.14-0.94-0.25-1.4-0.32
		c-0.47-0.07-0.94-0.14-1.44-0.18V15.98z M2.7,45.56c0-3.53,1.37-6.87,3.89-9.36c2.48-2.52,5.83-3.92,9.36-3.92h13.6h1.37
		c2.16,0,4.21,0.54,6.01,1.48c0.36,0.14,0.68,0.36,1.01,0.58c0.36,0.18,0.68,0.43,1.01,0.68c0.94,0.72,1.8,1.55,2.52,2.52
		c0.25,0.32,0.5,0.65,0.68,1.01c0.22,0.32,0.43,0.65,0.58,1.01c0.36,0.65,0.65,1.37,0.86,2.09c0.14,0.4,0.25,0.83,0.32,1.26
		c0.11,0.43,0.18,0.9,0.22,1.37c-0.07,0-0.14,0-0.22,0.04c-0.54,0.07-1.08,0.14-1.62,0.25c-0.5,0.11-1.01,0.25-1.51,0.4
		c-0.5,0.14-0.97,0.32-1.48,0.54c-0.94,0.4-1.84,0.86-2.7,1.48c-0.43,0.29-0.83,0.58-1.22,0.9c-1.26,1.04-2.38,2.27-3.24,3.63
		c-0.25,0.36-0.47,0.72-0.65,1.08c-0.22,0.4-0.43,0.79-0.61,1.22c-0.04,0.14-0.11,0.29-0.14,0.4c-0.14,0.29-0.25,0.54-0.32,0.83
		c-0.11,0.32-0.22,0.65-0.29,0.97c-0.14,0.47-0.25,0.94-0.32,1.4c-0.07,0.47-0.14,0.94-0.18,1.44H15.94
		C8.64,58.84,2.7,52.87,2.7,45.56z M58.77,75.14c0,7.31-5.94,13.24-13.24,13.24c-3.53,0-6.87-1.37-9.39-3.89
		c-2.48-2.48-3.89-5.83-3.89-9.36v-13.6v-1.37c0-2.16,0.5-4.21,1.48-6.01c0.14-0.36,0.36-0.68,0.58-1.01
		c0.18-0.36,0.43-0.68,0.68-1.01c0.72-0.94,1.55-1.8,2.52-2.52c0.32-0.25,0.65-0.47,1.01-0.68c0.32-0.22,0.65-0.4,1.01-0.58
		c0.65-0.36,1.37-0.65,2.09-0.86c0.4-0.14,0.83-0.25,1.26-0.32c0.43-0.11,0.9-0.18,1.37-0.22c0,0.07,0,0.14,0.04,0.22
		c0.07,0.54,0.14,1.08,0.25,1.62c0.11,0.5,0.25,1.01,0.4,1.51c0.14,0.5,0.32,0.97,0.54,1.48c0.4,0.94,0.86,1.84,1.48,2.7
		c0.29,0.43,0.58,0.83,0.9,1.22c1.04,1.26,2.27,2.38,3.63,3.24c0.36,0.25,0.72,0.47,1.08,0.65c0.4,0.22,0.79,0.43,1.22,0.61
		c0.4,0.18,0.79,0.32,1.22,0.47c0.32,0.11,0.65,0.22,0.97,0.29c0.43,0.14,0.86,0.22,1.3,0.32c0.07,0,0.14,0,0.22,0.04
		c0.43,0.04,0.86,0.11,1.3,0.14V75.14z M84.5,54.92c-2.52,2.52-5.87,3.92-9.39,3.92H61.47h-1.33c-3.02,0-5.79-1.01-8.03-2.74
		c-0.29-0.22-0.61-0.5-0.9-0.76c-0.32-0.29-0.61-0.58-0.86-0.86c-0.22-0.25-0.47-0.5-0.68-0.79c-0.29-0.36-0.54-0.76-0.76-1.15
		c-0.22-0.29-0.4-0.58-0.54-0.9c-0.04-0.04-0.04-0.07-0.07-0.11c-0.5-1.04-0.9-2.16-1.15-3.31c0-0.04,0-0.11-0.04-0.14
		c-0.04-0.4-0.11-0.79-0.14-1.22c0.07,0,0.11,0,0.18-0.04c0.54-0.07,1.08-0.14,1.62-0.25c0.5-0.11,1.01-0.25,1.51-0.4
		c0.5-0.14,0.97-0.32,1.48-0.54c0.94-0.4,1.84-0.86,2.7-1.48c0.4-0.29,0.83-0.58,1.22-0.9c0.4-0.32,0.76-0.65,1.12-1.04
		c0.32-0.32,0.65-0.65,0.97-1.01c0.04-0.04,0.04-0.07,0.07-0.11c0.32-0.4,0.61-0.83,0.9-1.22c0.61-0.86,1.08-1.76,1.48-2.7
		c0.22-0.5,0.4-0.97,0.54-1.48c0.14-0.5,0.29-1.01,0.4-1.51c0.11-0.54,0.18-1.08,0.25-1.62c0.04-0.11,0.04-0.18,0.04-0.29h13.68
		c7.31,0,13.24,5.97,13.24,13.28C88.35,49.09,86.98,52.44,84.5,54.92z"/>
	<path class="st1" d="M101.78,29.03h6.88l9.97,18.15l9.92-18.15h6.92v32.14h-6.92V41.15l-9.92,18.15l-9.97-18.15v20.03h-6.88V29.03z
		"/>
	<path class="st1" d="M144.26,35.26v6.41h16.14v6.22h-16.14v7.07h17.83v6.22h-24.75V29.03h24.75v6.22H144.26z"/>
	<path class="st1" d="M179.07,43.12h14.22v13.24c-3.23,3.37-8.19,5.38-13.01,5.38c-9.31,0-17.22-7.63-17.22-16.66
		s7.91-16.61,17.22-16.61c4.82,0,9.78,2.01,13.01,5.38l-5.01,4.49c-1.92-2.2-5.05-3.6-8-3.6c-5.48,0-10.11,4.77-10.11,10.34
		c0,5.61,4.63,10.39,10.11,10.39c2.2,0,4.45-0.75,6.27-2.06V48.5h-7.49V43.12z"/>
	<path class="st1" d="M218.51,56.12h-14.32l-2.06,5.05h-7.72l13.1-32.14h7.72l13.1,32.14h-7.77L218.51,56.12z M216.12,50.27
		l-4.77-11.74l-4.77,11.74H216.12z"/>
	<g>
		<g>
			<path class="st0" d="M228.56,29.03h10.3c5.04,0,8.75,4.12,8.75,9.97s-3.71,10.01-8.75,10.01h-8.5v12.16h-1.8V29.03z M238.5,46.72
				c4.28,0,7.27-3.09,7.27-7.72c0-4.59-2.99-7.67-7.27-7.67h-8.14v15.39H238.5z"/>
			<path class="st0" d="M271.54,29.03v32.14h-2.31V46.25h-15.09v14.92h-2.31V29.03h2.31v14.32h15.09V29.03H271.54z"/>
			<path class="st0" d="M294.99,53.6h-14.2l-2.56,7.58h-2.52l10.92-32.14h2.52l10.92,32.14h-2.52L294.99,53.6z M293.98,50.7
				l-6.09-17.97L281.8,50.7H293.98z"/>
			<path class="st0" d="M316.28,49.11l6.56,12.07h-2.67l-6.45-11.88h-7.17v11.88h-2.31V29.03h10.16c5.08,0,8.93,4.21,8.93,10.15
				C323.34,44.38,320.42,48.22,316.28,49.11z M306.56,46.44h7.46c4.14,0,7.02-2.81,7.02-7.25c0-4.49-2.88-7.3-7.02-7.3h-7.46V46.44z
				"/>
			<path class="st0" d="M328.24,29.03h2.31l9.44,23.02l9.44-23.02h2.31v32.14h-2.31V35.4l-9.44,23.02l-9.44-23.02v25.78h-2.31V29.03
				z"/>
			<path class="st0" d="M375.72,53.6h-14.2l-2.56,7.58h-2.52l10.92-32.14h2.52l10.92,32.14h-2.52L375.72,53.6z M374.71,50.7
				l-6.09-17.97l-6.09,17.97H374.71z"/>
		</g>
	</g>
	<g>
		<g>
			<path class="st1" d="M153.89,71.69h4.2c3.86,0,6.57,2.56,6.57,6.18c0,3.62-2.72,6.2-6.57,6.2h-4.2V71.69z M158.08,83
				c3.17,0,5.42-2.12,5.42-5.13c0-2.99-2.25-5.12-5.42-5.12h-3.04V83H158.08z"/>
			<path class="st1" d="M182.41,79.42l3.28,4.65h-1.33l-3.22-4.58h-3.58v4.58h-1.15V71.69h5.08c2.54,0,4.47,1.62,4.47,3.91
				C185.94,77.6,184.48,79.07,182.41,79.42z M177.55,78.39h3.73c2.07,0,3.51-1.08,3.51-2.79c0-1.73-1.44-2.81-3.51-2.81h-3.73V78.39
				z"/>
			<path class="st1" d="M196.71,77.87c0-3.48,2.92-6.39,6.34-6.39c3.44,0,6.32,2.92,6.32,6.39c0,3.48-2.88,6.41-6.32,6.41
				C199.63,84.28,196.71,81.34,196.71,77.87z M208.2,77.87c0-2.88-2.34-5.31-5.15-5.31c-2.81,0-5.17,2.43-5.17,5.31
				c0,2.9,2.36,5.33,5.17,5.33C205.86,83.2,208.2,80.77,208.2,77.87z"/>
			<path class="st1" d="M226.59,77.67h4.96v4.74c-1.17,1.14-3.04,1.87-4.79,1.87c-3.42,0-6.34-2.94-6.34-6.41
				c0-3.48,2.92-6.39,6.34-6.39c1.75,0,3.62,0.72,4.79,1.87l-0.79,0.81c-0.97-0.99-2.54-1.6-4-1.6c-2.81,0-5.17,2.43-5.17,5.31
				c0,2.9,2.36,5.33,5.17,5.33c1.28,0,2.65-0.47,3.64-1.26v-3.17h-3.8V77.67z"/>
			<path class="st1" d="M252.25,81.15h-7.1l-1.28,2.92h-1.26l5.46-12.37h1.26l5.45,12.37h-1.26L252.25,81.15z M251.74,80.03
				l-3.04-6.92l-3.04,6.92H251.74z"/>
			<path class="st1" d="M271.97,79.42l3.28,4.65h-1.33l-3.22-4.58h-3.58v4.58h-1.15V71.69h5.08c2.54,0,4.47,1.62,4.47,3.91
				C275.5,77.6,274.04,79.07,271.97,79.42z M267.11,78.39h3.73c2.07,0,3.51-1.08,3.51-2.79c0-1.73-1.44-2.81-3.51-2.81h-3.73V78.39z
				"/>
			<path class="st1" d="M286.75,71.69h1.15v12.37h-1.15V71.69z"/>
			<path class="st1" d="M308.71,81.15h-7.1l-1.28,2.92h-1.26l5.46-12.37h1.26l5.45,12.37h-1.26L308.71,81.15z M308.21,80.03
				l-3.04-6.92l-3.04,6.92H308.21z"/>
			<path class="st1" d="M321.82,82.3l0.72-0.9c1.08,1.08,2.48,1.8,4.2,1.8c1.96,0,3.1-1.08,3.1-2.34c0-1.35-1.13-1.96-3.48-2.5
				c-2.61-0.61-4.05-1.42-4.05-3.37c0-2.02,1.73-3.53,4.09-3.53c1.73,0,3.15,0.7,4.32,1.77l-0.72,0.9c-1.03-1.01-2.32-1.6-3.66-1.6
				c-1.67,0-2.86,1.06-2.86,2.38c0,1.24,1.17,1.78,3.46,2.34c2.54,0.6,4.07,1.5,4.07,3.51c0,1.98-1.57,3.51-4.31,3.51
				C324.74,84.26,323.06,83.52,321.82,82.3z"/>
		</g>
	</g>
</g>
</svg>
