<svg version="1.1" xmlns="http://www.w3.org/2000/svg" xmlns:xlink="http://www.w3.org/1999/xlink" x="0px" y="0px"
	 width="258.41px" height="61.81px" viewBox="0 0 258.41 61.81" style="overflow:visible;enable-background:new 0 0 258.41 61.81;"
	 xml:space="preserve">
<style type="text/css">
	.st0{fill:#F0DCBE;}
</style>
<defs>
</defs>
<g>
	<path class="st0" d="M50.97,20.07h-9.26v-9.23c0-2.88-1.12-5.62-3.15-7.64C36.51,1.15,33.78,0,30.89,0
		c-5.98,0-10.84,4.86-10.84,10.84v9.23h-9.23c-2.88,0-5.62,1.15-7.67,3.17C1.12,25.3,0,28.04,0,30.92c0,5.98,4.84,10.84,10.82,10.84
		h9.23v9.23c0,2.88,1.15,5.62,3.17,7.64c2.05,2.05,4.79,3.17,7.67,3.17c5.98,0,10.82-4.84,10.82-10.82v-9.23h9.26
		c2.88,0,5.62-1.15,7.67-3.17c2.03-2.05,3.15-4.79,3.15-7.67C61.79,24.93,56.95,20.07,50.97,20.07z M21.88,10.84
		c0-4.96,4.05-9.01,9.01-9.01c2.39,0,4.66,0.95,6.35,2.66c1.71,1.69,2.64,3.96,2.64,6.35v9.23V21c0,0.59-0.05,1.15-0.17,1.71
		c-0.02,0.22-0.07,0.42-0.15,0.63c-0.15,0.61-0.37,1.17-0.66,1.71c-0.12,0.24-0.24,0.49-0.39,0.71c-0.15,0.27-0.34,0.51-0.51,0.76
		c-0.15,0.17-0.32,0.37-0.46,0.54c-0.17,0.2-0.37,0.39-0.59,0.59c-0.2,0.17-0.39,0.34-0.61,0.51c-0.81,0.63-1.76,1.12-2.78,1.44
		c-0.27,0.1-0.56,0.17-0.85,0.22c-0.29,0.07-0.61,0.12-0.93,0.15c-0.02-0.24-0.05-0.51-0.1-0.76c-0.05-0.39-0.15-0.78-0.24-1.17
		c-0.07-0.29-0.17-0.59-0.29-0.85c0.02-0.02,0-0.02,0-0.05c-0.1-0.24-0.2-0.46-0.29-0.71c-0.29-0.63-0.63-1.22-1.03-1.76
		c-0.17-0.24-0.37-0.49-0.56-0.73c-0.2-0.24-0.42-0.46-0.63-0.68c-0.54-0.54-1.12-1.03-1.76-1.42c-0.22-0.17-0.46-0.32-0.73-0.44
		c-0.27-0.15-0.54-0.29-0.83-0.42c-0.1-0.05-0.17-0.07-0.27-0.1c-0.2-0.1-0.37-0.17-0.56-0.22c-0.22-0.07-0.44-0.15-0.66-0.2
		c-0.32-0.1-0.63-0.17-0.95-0.22c-0.32-0.05-0.63-0.1-0.98-0.12V10.84z M1.83,30.92c0-2.39,0.93-4.66,2.64-6.35
		c1.69-1.71,3.96-2.66,6.35-2.66h9.23h0.93c1.47,0,2.86,0.37,4.08,1c0.24,0.1,0.46,0.24,0.68,0.39c0.24,0.12,0.46,0.29,0.68,0.46
		c0.63,0.49,1.22,1.05,1.71,1.71c0.17,0.22,0.34,0.44,0.46,0.68c0.15,0.22,0.29,0.44,0.39,0.68c0.24,0.44,0.44,0.93,0.59,1.42
		c0.1,0.27,0.17,0.56,0.22,0.85c0.07,0.29,0.12,0.61,0.15,0.93c-0.05,0-0.1,0-0.15,0.02c-0.37,0.05-0.73,0.1-1.1,0.17
		c-0.34,0.07-0.68,0.17-1.03,0.27c-0.34,0.1-0.66,0.22-1,0.37c-0.63,0.27-1.25,0.59-1.83,1c-0.29,0.2-0.56,0.39-0.83,0.61
		c-0.85,0.71-1.61,1.54-2.2,2.47c-0.17,0.24-0.32,0.49-0.44,0.73c-0.15,0.27-0.29,0.54-0.42,0.83c-0.02,0.1-0.07,0.2-0.1,0.27
		c-0.1,0.2-0.17,0.37-0.22,0.56c-0.07,0.22-0.15,0.44-0.2,0.66c-0.1,0.32-0.17,0.63-0.22,0.95c-0.05,0.32-0.1,0.63-0.12,0.98h-9.28
		C5.86,39.93,1.83,35.88,1.83,30.92z M39.88,50.99c0,4.96-4.03,8.99-8.99,8.99c-2.39,0-4.66-0.93-6.37-2.64
		c-1.69-1.69-2.64-3.96-2.64-6.35v-9.23v-0.93c0-1.47,0.34-2.86,1-4.08c0.1-0.24,0.24-0.46,0.39-0.68c0.12-0.24,0.29-0.46,0.46-0.68
		c0.49-0.63,1.05-1.22,1.71-1.71c0.22-0.17,0.44-0.32,0.68-0.46c0.22-0.15,0.44-0.27,0.68-0.39c0.44-0.24,0.93-0.44,1.42-0.59
		c0.27-0.1,0.56-0.17,0.85-0.22c0.29-0.07,0.61-0.12,0.93-0.15c0,0.05,0,0.1,0.02,0.15c0.05,0.37,0.1,0.73,0.17,1.1
		c0.07,0.34,0.17,0.68,0.27,1.03c0.1,0.34,0.22,0.66,0.37,1c0.27,0.63,0.59,1.25,1,1.83c0.2,0.29,0.39,0.56,0.61,0.83
		c0.71,0.85,1.54,1.61,2.47,2.2c0.24,0.17,0.49,0.32,0.73,0.44c0.27,0.15,0.54,0.29,0.83,0.42c0.27,0.12,0.54,0.22,0.83,0.32
		c0.22,0.07,0.44,0.15,0.66,0.2c0.29,0.1,0.59,0.15,0.88,0.22c0.05,0,0.1,0,0.15,0.02c0.29,0.02,0.59,0.07,0.88,0.1V50.99z
		 M57.34,37.27c-1.71,1.71-3.98,2.66-6.37,2.66h-9.26h-0.9c-2.05,0-3.93-0.68-5.45-1.86c-0.2-0.15-0.42-0.34-0.61-0.51
		c-0.22-0.2-0.42-0.39-0.59-0.59c-0.15-0.17-0.32-0.34-0.46-0.54c-0.2-0.24-0.37-0.51-0.51-0.78c-0.15-0.2-0.27-0.39-0.37-0.61
		c-0.02-0.02-0.02-0.05-0.05-0.07c-0.34-0.71-0.61-1.47-0.78-2.25c0-0.02,0-0.07-0.02-0.1c-0.02-0.27-0.07-0.54-0.1-0.83
		c0.05,0,0.07,0,0.12-0.02c0.37-0.05,0.73-0.1,1.1-0.17c0.34-0.07,0.68-0.17,1.03-0.27c0.34-0.1,0.66-0.22,1-0.37
		c0.63-0.27,1.25-0.59,1.83-1c0.27-0.2,0.56-0.39,0.83-0.61s0.51-0.44,0.76-0.71c0.22-0.22,0.44-0.44,0.66-0.68
		c0.02-0.02,0.02-0.05,0.05-0.07c0.22-0.27,0.42-0.56,0.61-0.83c0.42-0.59,0.73-1.2,1-1.83c0.15-0.34,0.27-0.66,0.37-1
		c0.1-0.34,0.2-0.68,0.27-1.03c0.07-0.37,0.12-0.73,0.17-1.1c0.02-0.07,0.02-0.12,0.02-0.2h9.28c4.96,0,8.99,4.05,8.99,9.01
		C59.96,33.31,59.03,35.58,57.34,37.27z"/>
	<path class="st0" d="M69.07,19.7h4.67l6.76,12.32l6.73-12.32h4.7v21.81h-4.7V27.93L80.5,40.24l-6.76-12.32v13.59h-4.67V19.7z"/>
	<path class="st0" d="M97.9,23.93v4.35h10.95v4.22H97.9v4.79H110v4.22H93.2V19.7H110v4.22H97.9z"/>
	<path class="st0" d="M121.52,29.26h9.65v8.99c-2.19,2.29-5.56,3.65-8.83,3.65c-6.32,0-11.68-5.18-11.68-11.3
		s5.37-11.27,11.68-11.27c3.27,0,6.63,1.37,8.83,3.65l-3.4,3.05c-1.3-1.49-3.43-2.44-5.43-2.44c-3.72,0-6.86,3.24-6.86,7.02
		c0,3.81,3.14,7.05,6.86,7.05c1.49,0,3.02-0.51,4.25-1.4v-3.33h-5.08V29.26z"/>
	<path class="st0" d="M148.28,38.09h-9.72l-1.4,3.43h-5.24l8.89-21.81h5.24l8.89,21.81h-5.27L148.28,38.09z M146.66,34.12
		l-3.24-7.97l-3.24,7.97H146.66z"/>
	<g>
		<g>
			<path class="st0" d="M155.1,19.7h6.99c3.42,0,5.94,2.79,5.94,6.76s-2.52,6.79-5.94,6.79h-5.77v8.25h-1.22V19.7z M161.85,31.7
				c2.91,0,4.94-2.1,4.94-5.24c0-3.11-2.03-5.21-4.94-5.21h-5.53V31.7H161.85z"/>
			<path class="st0" d="M184.27,19.7v21.81h-1.56V31.39h-10.24v10.13h-1.56V19.7h1.56v9.72h10.24V19.7H184.27z"/>
			<path class="st0" d="M200.18,36.37h-9.63l-1.74,5.14h-1.71l7.41-21.81h1.71l7.41,21.81h-1.71L200.18,36.37z M199.5,34.4
				l-4.13-12.19l-4.13,12.19H199.5z"/>
			<path class="st0" d="M214.63,33.32l4.45,8.19h-1.81l-4.37-8.06h-4.87v8.06h-1.56V19.7h6.89c3.45,0,6.06,2.86,6.06,6.89
				C219.42,30.12,217.44,32.72,214.63,33.32z M208.03,31.51h5.06c2.81,0,4.77-1.9,4.77-4.92c0-3.05-1.96-4.95-4.77-4.95h-5.06V31.51
				z"/>
			<path class="st0" d="M222.74,19.7h1.56l6.4,15.62l6.4-15.62h1.56v21.81h-1.56V24.02l-6.4,15.62l-6.4-15.62v17.49h-1.56V19.7z"/>
			<path class="st0" d="M254.97,36.37h-9.63l-1.73,5.14h-1.71l7.41-21.81H251l7.41,21.81h-1.71L254.97,36.37z M254.28,34.4
				l-4.13-12.19l-4.13,12.19H254.28z"/>
		</g>
	</g>
	<g>
		<g>
			<path class="st0" d="M104.43,48.65h2.85c2.62,0,4.46,1.74,4.46,4.19s-1.84,4.2-4.46,4.2h-2.85V48.65z M107.27,56.32
				c2.15,0,3.68-1.44,3.68-3.48c0-2.03-1.53-3.47-3.68-3.47h-2.07v6.95H107.27z"/>
			<path class="st0" d="M123.79,53.89l2.22,3.15h-0.9l-2.19-3.11h-2.43v3.11h-0.78v-8.4h3.45c1.72,0,3.03,1.1,3.03,2.65
				C126.18,52.66,125.19,53.66,123.79,53.89z M120.49,53.19h2.53c1.4,0,2.38-0.73,2.38-1.89c0-1.17-0.98-1.91-2.38-1.91h-2.53V53.19
				z"/>
			<path class="st0" d="M133.49,52.84c0-2.36,1.98-4.34,4.3-4.34c2.33,0,4.29,1.98,4.29,4.34c0,2.36-1.96,4.35-4.29,4.35
				C135.47,57.19,133.49,55.2,133.49,52.84z M141.29,52.84c0-1.96-1.59-3.61-3.49-3.61c-1.91,0-3.51,1.65-3.51,3.61
				c0,1.97,1.6,3.62,3.51,3.62C139.7,56.46,141.29,54.81,141.29,52.84z"/>
			<path class="st0" d="M153.76,52.71h3.36v3.21c-0.79,0.77-2.07,1.27-3.25,1.27c-2.32,0-4.3-1.99-4.3-4.35
				c0-2.36,1.98-4.34,4.3-4.34c1.19,0,2.46,0.49,3.25,1.27l-0.54,0.55c-0.66-0.67-1.72-1.09-2.71-1.09c-1.91,0-3.51,1.65-3.51,3.61
				c0,1.97,1.6,3.62,3.51,3.62c0.87,0,1.8-0.32,2.47-0.86v-2.15h-2.58V52.71z"/>
			<path class="st0" d="M171.18,55.07h-4.82l-0.87,1.98h-0.86l3.7-8.4h0.86l3.7,8.4h-0.85L171.18,55.07z M170.83,54.31l-2.07-4.69
				l-2.07,4.69H170.83z"/>
			<path class="st0" d="M184.56,53.89l2.22,3.15h-0.9l-2.19-3.11h-2.43v3.11h-0.78v-8.4h3.45c1.72,0,3.03,1.1,3.03,2.65
				C186.95,52.66,185.96,53.66,184.56,53.89z M181.26,53.19h2.53c1.4,0,2.38-0.73,2.38-1.89c0-1.17-0.98-1.91-2.38-1.91h-2.53V53.19
				z"/>
			<path class="st0" d="M194.59,48.65h0.78v8.4h-0.78V48.65z"/>
			<path class="st0" d="M209.49,55.07h-4.82l-0.87,1.98h-0.86l3.7-8.4h0.86l3.7,8.4h-0.85L209.49,55.07z M209.15,54.31l-2.07-4.69
				l-2.07,4.69H209.15z"/>
			<path class="st0" d="M218.39,55.85l0.49-0.61c0.73,0.73,1.69,1.22,2.85,1.22c1.33,0,2.1-0.73,2.1-1.59c0-0.92-0.77-1.33-2.36-1.7
				c-1.77-0.42-2.75-0.97-2.75-2.29c0-1.37,1.17-2.4,2.78-2.4c1.17,0,2.14,0.48,2.93,1.2l-0.49,0.61c-0.7-0.68-1.58-1.09-2.48-1.09
				c-1.14,0-1.94,0.72-1.94,1.61c0,0.84,0.79,1.21,2.35,1.59c1.72,0.4,2.76,1.01,2.76,2.38c0,1.35-1.06,2.38-2.92,2.38
				C220.37,57.18,219.23,56.68,218.39,55.85z"/>
		</g>
	</g>
</g>
</svg>
